<svg width="18" height="18" viewBox="0 0 18 18" fill="none" xmlns="http://www.w3.org/2000/svg">
  <path d="M8.75 5.5C9.7165 5.5 10.5 4.7165 10.5 3.75C10.5 2.7835 9.7165 2 8.75 2C7.7835 2 7 2.7835 7 3.75C7 4.7165 7.7835 5.5 8.75 5.5Z" fill="#424567"/>
  <path d="M8.75 10.5C9.7165 10.5 10.5 9.7165 10.5 8.75C10.5 7.7835 9.7165 7 8.75 7C7.7835 7 7 7.7835 7 8.75C7 9.7165 7.7835 10.5 8.75 10.5Z" fill="#424567"/>
  <path d="M8.75 15.5C9.7165 15.5 10.5 14.7165 10.5 13.75C10.5 12.7835 9.7165 12 8.75 12C7.7835 12 7 12.7835 7 13.75C7 14.7165 7.7835 15.5 8.75 15.5Z" fill="#424567"/>
</svg>
